{
  "accessors": [
    {
      "bufferView": 2,
      "componentType": 5126,
      "count": 312,
      "max": [
        9.470071792602539,
        14.664512634277344,
        6.373204708099365
      ],
      "min": [
        -9.740288734436035,
        -13.39384651184082,
        -6.373204708099365
      ],
      "type": "VEC3"
    },
    {
      "bufferView": 2,
      "byteOffset": 3744,
      "componentType": 5126,
      "count": 312,
      "max": [
        1.0,
        1.0,
        1.0
      ],
      "min": [
        -1.0,
        -1.0,
        -1.0
      ],
      "type": "VEC3"
    },
    {
      "bufferView": 3,
      "componentType": 5126,
      "count": 312,
      "max": [
        1.0,
        1.0,
        1.0,
        1.0
      ],
      "min": [
        -0.9997348785400391,
        -1.0,
        -0.9999966621398926,
        1.0
      ],
      "type": "VEC4"
    },
    {
      "bufferView": 1,
      "componentType": 5126,
      "count": 312,
      "max": [
        0.9901403784751892,
        0.9361511468887329
      ],
      "min": [
        0.008774876594543457,
        0.040962159633636475
      ],
      "type": "VEC2"
    },
    {
      "bufferView": 0,
      "componentType": 5125,
      "count": 720,
      "type": "SCALAR"
    }
  ],
  "asset": {
    "extras": {
      "author": "Super_Alchemist1 (https://sketchfab.com/Super_Alchemist1)",
      "license": "CC-BY-4.0 (http://creativecommons.org/licenses/by/4.0/)",
      "source": "https://sketchfab.com/3d-models/modern-garden-fountain-b5fc6ae97377434a9797c5f80263d630",
      "title": "Modern Garden Fountain"
    },
    "generator": "Sketchfab-14.34.0",
    "version": "2.0"
  },
  "bufferViews": [
    {
      "buffer": 0,
      "byteLength": 2880,
      "name": "floatBufferViews",
      "target": 34963
    },
    {
      "buffer": 0,
      "byteLength": 2496,
      "byteOffset": 2880,
      "byteStride": 8,
      "name": "floatBufferViews",
      "target": 34962
    },
    {
      "buffer": 0,
      "byteLength": 7488,
      "byteOffset": 5376,
      "byteStride": 12,
      "name": "floatBufferViews",
      "target": 34962
    },
    {
      "buffer": 0,
      "byteLength": 4992,
      "byteOffset": 12864,
      "byteStride": 16,
      "name": "floatBufferViews",
      "target": 34962
    }
  ],
  "buffers": [
    {
      "byteLength": 17856,
      "uri": "scene.bin"
    }
  ],
  "images": [
    {
      "uri": "textures/lambert1_baseColor.png"
    },
    {
      "uri": "textures/lambert1_metallicRoughness.png"
    },
    {
      "uri": "textures/lambert1_normal.png"
    }
  ],
  "materials": [
    {
      "doubleSided": true,
      "name": "lambert1",
      "normalTexture": {
        "index": 2
      },
      "pbrMetallicRoughness": {
        "baseColorTexture": {
          "index": 0
        },
        "metallicRoughnessTexture": {
          "index": 1
        }
      }
    }
  ],
  "meshes": [
    {
      "name": "pCube4_lambert1_0",
      "primitives": [
        {
          "attributes": {
            "NORMAL": 1,
            "POSITION": 0,
            "TANGENT": 2,
            "TEXCOORD_0": 3
          },
          "indices": 4,
          "material": 0,
          "mode": 4
        }
      ]
    }
  ],
  "nodes": [
    {
      "children": [
        1
      ],
      "matrix": [
        1.0,
        0.0,
        0.0,
        0.0,
        0.0,
        2.220446049250313e-16,
        -1.0,
        0.0,
        0.0,
        1.0,
        2.220446049250313e-16,
        0.0,
        0.0,
        0.0,
        0.0,
        1.0
      ],
      "name": "Sketchfab_model"
    },
    {
      "children": [
        2
      ],
      "matrix": [
        0.009999999776482582,
        0.0,
        0.0,
        0.0,
        0.0,
        0.0,
        0.009999999776482582,
        0.0,
        0.0,
        -0.009999999776482582,
        0.0,
        0.0,
        0.0,
        0.0,
        0.0,
        1.0
      ],
      "name": "c05ce162bc4c4a93aaea92606281b949.fbx"
    },
    {
      "children": [
        3
      ],
      "name": "RootNode"
    },
    {
      "children": [
        4
      ],
      "name": "pCube4"
    },
    {
      "mesh": 0,
      "name": "pCube4_lambert1_0"
    }
  ],
  "samplers": [
    {
      "magFilter": 9729,
      "minFilter": 9987,
      "wrapS": 10497,
      "wrapT": 10497
    }
  ],
  "scene": 0,
  "scenes": [
    {
      "name": "Sketchfab_Scene",
      "nodes": [
        0
      ]
    }
  ],
  "textures": [
    {
      "sampler": 0,
      "source": 0
    },
    {
      "sampler": 0,
      "source": 1
    },
    {
      "sampler": 0,
      "source": 2
    }
  ]
}
