{
  "accessors": [
    {
      "bufferView": 2,
      "componentType": 5126,
      "count": 574,
      "max": [
        0.20718644559383392,
        0.7040368318557739,
        0.1424618363380432
      ],
      "min": [
        -0.19984160363674164,
        -0.00708999577909708,
        -0.11155661195516586
      ],
      "type": "VEC3"
    },
    {
      "bufferView": 2,
      "byteOffset": 6888,
      "componentType": 5126,
      "count": 574,
      "max": [
        0.997774064540863,
        0.989751398563385,
        0.9994471073150635
      ],
      "min": [
        -0.9999336004257202,
        -0.9996682405471802,
        -0.9029498100280762
      ],
      "type": "VEC3"
    },
    {
      "bufferView": 1,
      "componentType": 5126,
      "count": 574,
      "max": [
        1.2584943771362305,
        1.9317530393600464
      ],
      "min": [
        -0.7117790579795837,
        -0.7612309455871582
      ],
      "type": "VEC2"
    },
    {
      "bufferView": 0,
      "componentType": 5125,
      "count": 2964,
      "type": "SCALAR"
    },
    {
      "bufferView": 3,
      "componentType": 5126,
      "count": 501,
      "max": [
        20.83333396911621
      ],
      "min": [
        0.0
      ],
      "type": "SCALAR"
    },
    {
      "bufferView": 4,
      "componentType": 5126,
      "count": 501,
      "max": [
        5.138973135920821e-10,
        1.0,
        8.146034957690063e-08,
        1.0
      ],
      "min": [
        -8.146034957690063e-08,
        -0.9999204874038696,
        -8.14538694271505e-08,
        -0.006308558396995068
      ],
      "type": "VEC4"
    }
  ],
  "animations": [
    {
      "channels": [
        {
          "sampler": 0,
          "target": {
            "node": 3,
            "path": "rotation"
          }
        }
      ],
      "name": "SlimAction",
      "samplers": [
        {
          "input": 4,
          "interpolation": "LINEAR",
          "output": 5
        }
      ]
    }
  ],
  "asset": {
    "extras": {
      "author": "Paspro360 (https://sketchfab.com/paspro360)",
      "license": "CC-BY-4.0 (http://creativecommons.org/licenses/by/4.0/)",
      "source": "https://sketchfab.com/3d-models/female-torso-6e57de8000ad42c6a842413e647d02b8",
      "title": "Female Torso"
    },
    "generator": "Sketchfab-12.68.0",
    "version": "2.0"
  },
  "bufferViews": [
    {
      "buffer": 0,
      "byteLength": 11856,
      "name": "floatBufferViews",
      "target": 34963
    },
    {
      "buffer": 0,
      "byteLength": 4592,
      "byteOffset": 11856,
      "byteStride": 8,
      "name": "floatBufferViews",
      "target": 34962
    },
    {
      "buffer": 0,
      "byteLength": 13776,
      "byteOffset": 16448,
      "byteStride": 12,
      "name": "floatBufferViews",
      "target": 34962
    },
    {
      "buffer": 0,
      "byteLength": 2004,
      "byteOffset": 30224,
      "name": "floatBufferViews"
    },
    {
      "buffer": 0,
      "byteLength": 8016,
      "byteOffset": 32228,
      "byteStride": 16,
      "name": "floatBufferViews"
    }
  ],
  "buffers": [
    {
      "byteLength": 40244,
      "uri": "scene.bin"
    }
  ],
  "images": [
    {
      "uri": "textures/Female_Coin_baseColor.png"
    }
  ],
  "materials": [
    {
      "alphaMode": "MASK",
      "doubleSided": true,
      "name": "Female_Coin",
      "pbrMetallicRoughness": {
        "baseColorTexture": {
          "index": 0
        },
        "metallicFactor": 0.0,
        "roughnessFactor": 0.3908411311554153
      }
    }
  ],
  "meshes": [
    {
      "name": "Object_0",
      "primitives": [
        {
          "attributes": {
            "NORMAL": 1,
            "POSITION": 0,
            "TEXCOORD_0": 2
          },
          "indices": 3,
          "material": 0,
          "mode": 4
        }
      ]
    }
  ],
  "nodes": [
    {
      "children": [
        1
      ],
      "matrix": [
        1.0,
        0.0,
        0.0,
        0.0,
        0.0,
        2.220446049250313e-16,
        -1.0,
        0.0,
        0.0,
        1.0,
        2.220446049250313e-16,
        0.0,
        0.0,
        0.0,
        0.0,
        1.0
      ],
      "name": "Sketchfab_model"
    },
    {
      "children": [
        2
      ],
      "name": "root"
    },
    {
      "children": [
        3
      ],
      "matrix": [
        1.0,
        0.0,
        0.0,
        0.0,
        0.0,
        2.220446049250313e-16,
        1.0,
        0.0,
        0.0,
        -1.0,
        2.220446049250313e-16,
        0.0,
        0.0,
        0.0,
        0.0,
        1.0
      ],
      "name": "GLTF_SceneRootNode"
    },
    {
      "children": [
        4
      ],
      "name": "Slim_0"
    },
    {
      "mesh": 0,
      "name": "Object_4"
    }
  ],
  "samplers": [
    {
      "magFilter": 9729,
      "minFilter": 9987,
      "wrapS": 10497,
      "wrapT": 10497
    }
  ],
  "scene": 0,
  "scenes": [
    {
      "name": "Sketchfab_Scene",
      "nodes": [
        0
      ]
    }
  ],
  "textures": [
    {
      "sampler": 0,
      "source": 0
    }
  ]
}
